<?xml version="1.0" encoding="utf-8"?>
<!-- Generator: Adobe Illustrator 25.0.1, SVG Export Plug-In . SVG Version: 6.00 Build 0)  -->
<svg version="1.1" id="TALK_x5F_TO_x5F_ASSOCIATE" xmlns="http://www.w3.org/2000/svg" xmlns:xlink="http://www.w3.org/1999/xlink"
	 x="0px" y="0px" viewBox="0 0 60 60" style="enable-background:new 0 0 60 60;" xml:space="preserve">
<style type="text/css">
	.st0{fill-rule:evenodd;clip-rule:evenodd;fill:#D5DBDB;}
	.st1{fill:none;stroke:#D5DBDB;stroke-width:2.3484;stroke-miterlimit:10;}
</style>
<g id="SMILE_x5F_MARK">
	<path class="st0" d="M46.55,32.71c-4.49,3.31-10.99,5.07-16.59,5.07c-7.85,0-14.92-2.9-20.27-7.73c-0.42-0.38-0.05-0.9,0.46-0.6
		c5.77,3.36,12.91,5.38,20.28,5.38c4.97,0,10.44-1.03,15.47-3.17C46.66,31.34,47.29,32.16,46.55,32.71z"/>
	<path class="st0" d="M48.42,30.58c-0.57-0.73-3.79-0.35-5.24-0.17c-0.44,0.05-0.51-0.33-0.11-0.61c2.57-1.8,6.78-1.28,7.27-0.68
		c0.49,0.61-0.13,4.83-2.54,6.84c-0.37,0.31-0.72,0.14-0.56-0.26C47.78,34.34,48.99,31.32,48.42,30.58z"/>
</g>
<circle id="CIRCLE" class="st1" cx="30" cy="30" r="27.89"/>
</svg>
