<?xml version="1.0" encoding="UTF-8"?>
<svg version="1.1" viewBox="0 0 360 248" xmlns="http://www.w3.org/2000/svg">
<title>Low fi / Shipping</title>
<g fill="none" fill-rule="evenodd">
<g transform="translate(-426 -8807)">
<g transform="translate(120 8290)">
<g transform="translate(306 517)">
<rect width="360" height="248" fill="#fff"/>
<g transform="translate(40 40)">
<g transform="translate(31.25)" fill="#2292C0">
<path d="m10.611 13.675c-1.4409 0-2.7984 0.37412-4.0725 1.1194v10.897c1.2206 0.74824 2.5751 1.1194 4.0725 1.1194 1.551 0 2.6942-0.52258 3.4265-1.5737 0.73531-1.0481 1.1015-2.7079 1.1015-4.9734 0-2.2922-0.36021-3.9639-1.0806-5.015-0.72043-1.0481-1.8695-1.5737-3.4473-1.5737zm-10.14-2.9009c0-0.38599 0.086332-0.65619 0.25007-0.80762 0.16671-0.15143 0.42868-0.22863 0.79187-0.22863h2.9889c0.63707 0 1.0271 0.30583 1.164 0.91154l0.29174 1.0778c0.83058-0.80168 1.8338-1.4371 3.0127-1.9062 1.1759-0.46913 2.3726-0.7037 3.5932-0.7037 2.6852 0 4.8138 0.97983 6.3767 2.9425 1.5659 1.9597 2.3488 4.6141 2.3488 7.9545 0 2.2952-0.38701 4.2964-1.164 6.0096-0.77401 1.7132-1.8279 3.0315-3.1586 3.9579-1.3277 0.92639-2.8519 1.3896-4.5697 1.3896-1.1372 0-2.2149-0.18112-3.2419-0.54039-1.0241-0.35927-1.8963-0.85513-2.6168-1.4905v9.0738c0 0.38599-0.077401 0.65619-0.22625 0.80762-0.1548 0.15143-0.42571 0.22863-0.81271 0.22863h-3.9862c-0.36319 0-0.62516-0.077199-0.79187-0.22863-0.16373-0.15143-0.25007-0.42162-0.25007-0.80762v-27.64z"/>
<path d="m31.091 12.888c1.1074-1.2144 2.1524-2.0784 3.1377-2.5891 0.9824-0.5107 2.0273-0.76902 3.1377-0.76902h0.58051c0.38701 0 0.66386 0.077199 0.83058 0.22863s0.25007 0.42162 0.25007 0.80762v3.4829c0 0.35927-0.077401 0.62056-0.22923 0.78683s-0.42273 0.24941-0.80974 0.24941c-0.1935 0-0.44357-0.014846-0.74722-0.041569-0.30663-0.026723-0.69363-0.041569-1.164-0.041569-0.63707 0-1.4141 0.089076-2.328 0.2702-0.91393 0.17815-1.6879 0.40678-2.325 0.68291v13.923c0 0.35927-0.077401 0.62353-0.22923 0.78683-0.15183 0.16627-0.42273 0.24941-0.80974 0.24941h-3.9891c-0.36021 0-0.62516-0.083137-0.7889-0.24941-0.16671-0.16331-0.25007-0.42756-0.25007-0.78683v-19.104c0-0.38599 0.083355-0.65619 0.25007-0.80762 0.16373-0.15143 0.42868-0.22863 0.7889-0.22863h2.9919c0.63707 0 1.0241 0.30583 1.164 0.91154l0.53883 2.2388z"/>
<path d="m41.96 10.775c0-0.38599 0.083355-0.65619 0.25007-0.80762 0.16671-0.15143 0.42868-0.22863 0.7889-0.22863h3.9891c0.38701 0 0.65791 0.077199 0.80974 0.22863 0.15183 0.15143 0.22923 0.42162 0.22923 0.80762v19.104c0 0.35927-0.077401 0.62056-0.22923 0.78683s-0.42273 0.24941-0.80974 0.24941h-3.9891c-0.36021 0-0.62219-0.083137-0.7889-0.24941-0.16671-0.16627-0.25007-0.42756-0.25007-0.78683v-19.104zm3.0335-4.3113c-1.0538 0-1.8993-0.28801-2.5334-0.86997-0.64005-0.57899-0.95561-1.3658-0.95561-2.3605s0.31556-1.7815 0.95561-2.3635c0.6341-0.57899 1.4796-0.86997 2.5334-0.86997 1.0509 0 1.8963 0.29098 2.5334 0.86997 0.63707 0.58196 0.95561 1.3688 0.95561 2.3635s-0.31854 1.7815-0.95561 2.3605c-0.63707 0.58196-1.4825 0.86997-2.5334 0.86997z"/>
<path d="m58.696 11.769c1.4676-0.96796 2.7894-1.6509 3.9683-2.0517 1.1759-0.40084 2.3875-0.59978 3.6349-0.59978 2.4947 0 4.2511 0.88482 5.2782 2.6515 1.4111-0.93826 2.7418-1.6152 3.9891-2.0309 1.2444-0.41569 2.5334-0.62056 3.8641-0.62056 1.938 0 3.4414 0.53742 4.5071 1.6152 1.0658 1.0778 1.5986 2.5832 1.5986 4.5161v14.629c0 0.35927-0.077401 0.62353-0.22923 0.78683-0.15183 0.16627-0.42273 0.24941-0.80974 0.24941h-3.9891c-0.36021 0-0.62219-0.083137-0.7889-0.24941-0.16671-0.16331-0.25007-0.42756-0.25007-0.78683v-13.302c0-1.8795-0.84248-2.8178-2.5334-2.8178-1.4944 0-3.0067 0.35927-4.528 1.0778v0.41272 14.629c0 0.35927-0.077401 0.62353-0.22923 0.78683-0.15183 0.16627-0.42273 0.24941-0.80974 0.24941h-3.9891c-0.36021 0-0.62219-0.083137-0.7889-0.24941-0.16671-0.16331-0.25007-0.42756-0.25007-0.78683v-13.302c0-1.8795-0.84546-2.8178-2.5334-2.8178-1.551 0-3.0752 0.37412-4.5726 1.1194v15c0 0.35927-0.074424 0.62353-0.22625 0.78683-0.1548 0.16627-0.42273 0.24941-0.81271 0.24941h-3.9862c-0.36021 0-0.62516-0.083137-0.79187-0.24941-0.16373-0.16331-0.24709-0.42756-0.24709-0.78683v-19.104c0-0.38599 0.083355-0.65619 0.24709-0.80762 0.16671-0.15143 0.43166-0.22863 0.79187-0.22863h2.9889c0.64005 0 1.0271 0.30583 1.164 0.91154l0.33342 1.1194z"/>
<path d="m99.248 13.303c-2.6584 0-4.1975 1.6301-4.6113 4.8903 1.1074 0.21972 2.3399 0.33255 3.6974 0.33255 1.4111 0 2.4381-0.21378 3.0752-0.64431 0.63707-0.42756 0.95561-1.0838 0.95561-1.9686 0-1.7399-1.039-2.6099-3.1169-2.6099m-0.58051 8.9521c-1.5808 0-2.9502-0.15143-4.1142-0.45725 0.16671 1.8528 0.72638 3.177 1.682 3.9787 0.95561 0.80168 2.4024 1.2025 4.3434 1.2025 0.77401 0 1.5302-0.047507 2.2625-0.14549 0.73531-0.097983 1.7534-0.31176 3.0544-0.64134 0.083355-0.029692 0.16671-0.050476 0.25007-0.062353 0.083355-0.014846 0.15183-0.020784 0.20839-0.020784 0.47036 0 0.70554 0.3177 0.70554 0.95311v1.9062c0 0.44241-0.062517 0.7512-0.18755 0.93232-0.12503 0.17815-0.36617 0.33849-0.72638 0.47507-2.0243 0.77496-4.1707 1.161-6.4422 1.161-3.4324 0-6.073-0.93826-7.9128-2.8178-1.8427-1.8795-2.7626-4.5725-2.7626-8.0821 0-3.5897 0.94072-6.4075 2.8251-8.4533 1.8814-2.0428 4.5012-3.0672 7.8503-3.0672 2.5781 0 4.5935 0.62353 6.0462 1.8646 1.4557 1.2441 2.1821 2.9009 2.1821 4.9734s-0.78294 3.6402-2.3488 4.7032c-1.5629 1.0659-3.8701 1.5974-6.9155 1.5974"/>
</g>
<path d="m29.376 10.01h-5.0131c-0.25586 0-0.97882-0.10355-1.1722 0.3491l-11.225 17.955-5.0667-6.3843c-0.13686-0.20709-0.36892-0.33134-0.61883-0.33134h-5.5338c-0.28561 0-0.54445 0.15976-0.66941 0.41122-0.12496 0.25147-0.095204 0.55323 0.077354 0.77807l11.654 14.422c0.13983 0.18342 0.35999 0.28993 0.59205 0.28993 0.0119 0 0.020826 0 0.032726-0.0029584 0.24396-0.0088753 0.4671-0.13905 0.59503-0.34614l16.699-25.73c0.67536-0.92303-0.080329-1.4112-0.35107-1.4112" fill="#F7981C"/>
<circle cx="20" cy="84" r="20" stroke="#232F3E" stroke-width="2"/>
<circle cx="20" cy="84" r="12" fill="#00A4B4"/>
<circle cx="20" cy="148" r="20" stroke="#232F3E" stroke-width="2"/>
</g>
<path d="m107.55 133.29c1.856 0 3.456-0.304 4.8-0.912 0.208-0.096 0.348-0.204 0.42-0.324s0.108-0.308 0.108-0.564v-6.816c0-0.32-0.16-0.48-0.48-0.48h-5.064c-0.32 0-0.48 0.16-0.48 0.48v0.936c0 0.32 0.16 0.48 0.48 0.48h3.24v4.872c-0.752 0.176-1.6 0.264-2.544 0.264-2.048 0-3.556-0.504-4.524-1.512s-1.452-2.576-1.452-4.704v-0.528c0-2.16 0.472-3.748 1.416-4.764s2.432-1.524 4.464-1.524c1.056 0 2.168 0.184 3.336 0.552 0.352 0.112 0.584 0.168 0.696 0.168 0.224 0 0.336-0.152 0.336-0.456v-0.84c0-0.192-0.036-0.34-0.108-0.444s-0.204-0.196-0.396-0.276c-1.264-0.512-2.64-0.768-4.128-0.768-2.64 0-4.656 0.74-6.048 2.22s-2.088 3.628-2.088 6.444c0 2.784 0.68 4.896 2.04 6.336s3.352 2.16 5.976 2.16zm14.184 0.072c0.672 0 1.34-0.064 2.004-0.192s1.236-0.296 1.716-0.504c0.208-0.096 0.344-0.188 0.408-0.276s0.096-0.236 0.096-0.444v-0.672c0-0.288-0.104-0.432-0.312-0.432-0.064 0-0.136 0.012-0.216 0.036s-0.176 0.052-0.288 0.084c-0.672 0.208-1.228 0.344-1.668 0.408s-0.9 0.096-1.38 0.096c-1.36 0-2.364-0.328-3.012-0.984s-0.988-1.672-1.02-3.048h7.536c0.16 0 0.276-0.032 0.348-0.096s0.124-0.192 0.156-0.384c0.08-0.528 0.12-1.048 0.12-1.56 0-1.568-0.408-2.78-1.224-3.636s-1.984-1.284-3.504-1.284c-1.808 0-3.216 0.564-4.224 1.692s-1.512 2.708-1.512 4.74c0 2.128 0.504 3.736 1.512 4.824s2.496 1.632 4.464 1.632zm2.304-7.512h-5.976c0.08-1.184 0.4-2.076 0.96-2.676s1.344-0.9 2.352-0.9c0.88 0 1.548 0.248 2.004 0.744s0.684 1.232 0.684 2.208c0 0.288-8e-3 0.496-0.024 0.624zm9.216 7.32c0.832 0 1.56-0.096 2.184-0.288 0.192-0.064 0.32-0.148 0.384-0.252s0.096-0.26 0.096-0.468v-0.648c0-0.16-0.024-0.276-0.072-0.348s-0.136-0.108-0.264-0.108c-0.08 0-0.24 0.024-0.48 0.072-0.448 0.08-0.824 0.12-1.128 0.12-0.64 0-1.092-0.12-1.356-0.36s-0.396-0.656-0.396-1.248v-6.936h3.12c0.32 0 0.48-0.16 0.48-0.48v-0.912c0-0.32-0.16-0.48-0.48-0.48h-3.12v-2.928c0-0.32-0.16-0.48-0.48-0.48h-1.008c-0.304 0-0.472 0.16-0.504 0.48l-0.312 2.976-1.752 0.216c-0.208 0.032-0.348 0.088-0.42 0.168s-0.108 0.2-0.108 0.36v0.6c0 0.32 0.16 0.48 0.48 0.48h1.728v7.056c0 2.272 1.136 3.408 3.408 3.408zm12.6-14.496c0.464 0 0.828-0.132 1.092-0.396s0.396-0.612 0.396-1.044-0.132-0.78-0.396-1.044-0.628-0.396-1.092-0.396-0.828 0.132-1.092 0.396-0.396 0.612-0.396 1.044 0.132 0.78 0.396 1.044 0.628 0.396 1.092 0.396zm0.696 14.328c0.32 0 0.48-0.16 0.48-0.48v-11.208c0-0.32-0.16-0.48-0.48-0.48h-1.416c-0.32 0-0.48 0.16-0.48 0.48v11.208c0 0.32 0.16 0.48 0.48 0.48h1.416zm8.304 0.168c0.832 0 1.56-0.096 2.184-0.288 0.192-0.064 0.32-0.148 0.384-0.252s0.096-0.26 0.096-0.468v-0.648c0-0.16-0.024-0.276-0.072-0.348s-0.136-0.108-0.264-0.108c-0.08 0-0.24 0.024-0.48 0.072-0.448 0.08-0.824 0.12-1.128 0.12-0.64 0-1.092-0.12-1.356-0.36s-0.396-0.656-0.396-1.248v-6.936h3.12c0.32 0 0.48-0.16 0.48-0.48v-0.912c0-0.32-0.16-0.48-0.48-0.48h-3.12v-2.928c0-0.32-0.16-0.48-0.48-0.48h-1.008c-0.304 0-0.472 0.16-0.504 0.48l-0.312 2.976-1.752 0.216c-0.208 0.032-0.348 0.088-0.42 0.168s-0.108 0.2-0.108 0.36v0.6c0 0.32 0.16 0.48 0.48 0.48h1.728v7.056c0 2.272 1.136 3.408 3.408 3.408zm15.768 0.048c0.96 0 1.824-0.104 2.592-0.312 0.256-0.08 0.428-0.188 0.516-0.324s0.132-0.356 0.132-0.66v-1.536c0-0.224-0.036-0.384-0.108-0.48s-0.188-0.144-0.348-0.144c-0.128 0-0.284 0.016-0.468 0.048s-0.404 0.048-0.66 0.048c-0.576 0-0.984-0.096-1.224-0.288s-0.36-0.528-0.36-1.008v-4.848h2.4c0.272 0 0.46-0.056 0.564-0.168s0.156-0.296 0.156-0.552v-1.632c0-0.272-0.052-0.46-0.156-0.564s-0.292-0.156-0.564-0.156h-2.4v-2.496c0-0.272-0.052-0.46-0.156-0.564s-0.292-0.156-0.564-0.156h-2.28c-0.256 0-0.448 0.052-0.576 0.156s-0.216 0.292-0.264 0.564l-0.552 2.592-1.2 0.288c-0.224 0.048-0.384 0.136-0.48 0.264s-0.144 0.312-0.144 0.552v1.152c0 0.256 0.056 0.44 0.168 0.552s0.296 0.168 0.552 0.168h0.984v5.136c0 1.504 0.36 2.608 1.08 3.312s1.84 1.056 3.36 1.056zm10.992 0.144c2 0 3.568-0.576 4.704-1.728s1.704-2.76 1.704-4.824c0-2.048-0.568-3.648-1.704-4.8s-2.704-1.728-4.704-1.728-3.568 0.576-4.704 1.728-1.704 2.752-1.704 4.8c0 2.064 0.568 3.672 1.704 4.824s2.704 1.728 4.704 1.728zm0-3.168c-1.232 0-1.848-1.128-1.848-3.384 0-2.24 0.616-3.36 1.848-3.36s1.848 1.12 1.848 3.36c0 2.256-0.616 3.384-1.848 3.384zm13.248 3.072c0.656 0 1.284-0.12 1.884-0.36s1.116-0.576 1.548-1.008l0.168 0.48c0.08 0.24 0.18 0.404 0.3 0.492s0.292 0.132 0.516 0.132h2.448c0.272 0 0.46-0.056 0.564-0.168s0.156-0.296 0.156-0.552v-16.32c0-0.272-0.052-0.46-0.156-0.564s-0.292-0.156-0.564-0.156h-3.072c-0.256 0-0.44 0.052-0.552 0.156s-0.168 0.292-0.168 0.564v5.232c-0.832-0.608-1.8-0.912-2.904-0.912-1.008 0-1.904 0.264-2.688 0.792s-1.396 1.288-1.836 2.28-0.66 2.168-0.66 3.528c0 1.984 0.444 3.544 1.332 4.68s2.116 1.704 3.684 1.704zm1.56-3.168c-0.72 0-1.236-0.264-1.548-0.792s-0.468-1.368-0.468-2.52c0-1.168 0.148-2.024 0.444-2.568s0.764-0.816 1.404-0.816c0.624 0 1.184 0.112 1.68 0.336v6c-0.576 0.24-1.08 0.36-1.512 0.36zm12.288 3.336c0.64 0 1.264-0.12 1.872-0.36s1.152-0.584 1.632-1.032l0.12 0.336c0.08 0.24 0.18 0.404 0.3 0.492s0.292 0.132 0.516 0.132h2.208c0.272 0 0.46-0.056 0.564-0.168s0.156-0.296 0.156-0.552v-7.56c0-1.536-0.412-2.66-1.236-3.372s-2.116-1.068-3.876-1.068c-1.744 0-3.272 0.264-4.584 0.792-0.272 0.112-0.448 0.232-0.528 0.36s-0.12 0.336-0.12 0.624v1.344c0 0.416 0.144 0.624 0.432 0.624 0.144 0 0.392-0.056 0.744-0.168 0.432-0.128 0.924-0.236 1.476-0.324s1.036-0.132 1.452-0.132c0.768 0 1.304 0.132 1.608 0.396s0.456 0.724 0.456 1.38v0.624c-0.656-0.144-1.376-0.216-2.16-0.216-0.96 0-1.816 0.164-2.568 0.492s-1.344 0.8-1.776 1.416-0.648 1.332-0.648 2.148c0 1.136 0.36 2.052 1.08 2.748s1.68 1.044 2.88 1.044zm1.464-2.856c-0.368 0-0.66-0.112-0.876-0.336s-0.324-0.528-0.324-0.912c0-0.896 0.536-1.344 1.608-1.344 0.336 0 0.776 0.032 1.32 0.096v1.776c-0.208 0.208-0.472 0.38-0.792 0.516s-0.632 0.204-0.936 0.204zm10.752 7.656c1.152 0 2.104-0.312 2.856-0.936s1.384-1.64 1.896-3.048l4.584-12.408c0.128-0.368 0.192-0.608 0.192-0.72 0-0.32-0.208-0.48-0.624-0.48h-3.168c-0.256 0-0.444 0.048-0.564 0.144s-0.22 0.288-0.3 0.576l-1.824 7.488-1.968-7.488c-0.08-0.288-0.18-0.48-0.3-0.576s-0.308-0.144-0.564-0.144h-3.288c-0.416 0-0.624 0.16-0.624 0.48 0 0.144 0.064 0.384 0.192 0.72l4.584 11.544c-0.24 0.576-0.548 0.988-0.924 1.236s-0.884 0.372-1.524 0.372c-0.144 0-0.304-8e-3 -0.48-0.024s-0.328-0.024-0.456-0.024c-0.176 0-0.3 0.048-0.372 0.144s-0.108 0.248-0.108 0.456v1.464c0 0.32 0.044 0.548 0.132 0.684s0.26 0.236 0.516 0.3c0.752 0.16 1.464 0.24 2.136 0.24z" fill="#232F3E" fill-rule="nonzero"/>
<path d="m107.55 197.29c1.856 0 3.456-0.304 4.8-0.912 0.208-0.096 0.348-0.204 0.42-0.324s0.108-0.308 0.108-0.564v-6.816c0-0.32-0.16-0.48-0.48-0.48h-5.064c-0.32 0-0.48 0.16-0.48 0.48v0.936c0 0.32 0.16 0.48 0.48 0.48h3.24v4.872c-0.752 0.176-1.6 0.264-2.544 0.264-2.048 0-3.556-0.504-4.524-1.512s-1.452-2.576-1.452-4.704v-0.528c0-2.16 0.472-3.748 1.416-4.764s2.432-1.524 4.464-1.524c1.056 0 2.168 0.184 3.336 0.552 0.352 0.112 0.584 0.168 0.696 0.168 0.224 0 0.336-0.152 0.336-0.456v-0.84c0-0.192-0.036-0.34-0.108-0.444s-0.204-0.196-0.396-0.276c-1.264-0.512-2.64-0.768-4.128-0.768-2.64 0-4.656 0.74-6.048 2.22s-2.088 3.628-2.088 6.444c0 2.784 0.68 4.896 2.04 6.336s3.352 2.16 5.976 2.16zm14.184 0.072c0.672 0 1.34-0.064 2.004-0.192s1.236-0.296 1.716-0.504c0.208-0.096 0.344-0.188 0.408-0.276s0.096-0.236 0.096-0.444v-0.672c0-0.288-0.104-0.432-0.312-0.432-0.064 0-0.136 0.012-0.216 0.036s-0.176 0.052-0.288 0.084c-0.672 0.208-1.228 0.344-1.668 0.408s-0.9 0.096-1.38 0.096c-1.36 0-2.364-0.328-3.012-0.984s-0.988-1.672-1.02-3.048h7.536c0.16 0 0.276-0.032 0.348-0.096s0.124-0.192 0.156-0.384c0.08-0.528 0.12-1.048 0.12-1.56 0-1.568-0.408-2.78-1.224-3.636s-1.984-1.284-3.504-1.284c-1.808 0-3.216 0.564-4.224 1.692s-1.512 2.708-1.512 4.74c0 2.128 0.504 3.736 1.512 4.824s2.496 1.632 4.464 1.632zm2.304-7.512h-5.976c0.08-1.184 0.4-2.076 0.96-2.676s1.344-0.9 2.352-0.9c0.88 0 1.548 0.248 2.004 0.744s0.684 1.232 0.684 2.208c0 0.288-8e-3 0.496-0.024 0.624zm9.216 7.32c0.832 0 1.56-0.096 2.184-0.288 0.192-0.064 0.32-0.148 0.384-0.252s0.096-0.26 0.096-0.468v-0.648c0-0.16-0.024-0.276-0.072-0.348s-0.136-0.108-0.264-0.108c-0.08 0-0.24 0.024-0.48 0.072-0.448 0.08-0.824 0.12-1.128 0.12-0.64 0-1.092-0.12-1.356-0.36s-0.396-0.656-0.396-1.248v-6.936h3.12c0.32 0 0.48-0.16 0.48-0.48v-0.912c0-0.32-0.16-0.48-0.48-0.48h-3.12v-2.928c0-0.32-0.16-0.48-0.48-0.48h-1.008c-0.304 0-0.472 0.16-0.504 0.48l-0.312 2.976-1.752 0.216c-0.208 0.032-0.348 0.088-0.42 0.168s-0.108 0.2-0.108 0.36v0.6c0 0.32 0.16 0.48 0.48 0.48h1.728v7.056c0 2.272 1.136 3.408 3.408 3.408zm12.6-14.496c0.464 0 0.828-0.132 1.092-0.396s0.396-0.612 0.396-1.044-0.132-0.78-0.396-1.044-0.628-0.396-1.092-0.396-0.828 0.132-1.092 0.396-0.396 0.612-0.396 1.044 0.132 0.78 0.396 1.044 0.628 0.396 1.092 0.396zm0.696 14.328c0.32 0 0.48-0.16 0.48-0.48v-11.208c0-0.32-0.16-0.48-0.48-0.48h-1.416c-0.32 0-0.48 0.16-0.48 0.48v11.208c0 0.32 0.16 0.48 0.48 0.48h1.416zm8.304 0.168c0.832 0 1.56-0.096 2.184-0.288 0.192-0.064 0.32-0.148 0.384-0.252s0.096-0.26 0.096-0.468v-0.648c0-0.16-0.024-0.276-0.072-0.348s-0.136-0.108-0.264-0.108c-0.08 0-0.24 0.024-0.48 0.072-0.448 0.08-0.824 0.12-1.128 0.12-0.64 0-1.092-0.12-1.356-0.36s-0.396-0.656-0.396-1.248v-6.936h3.12c0.32 0 0.48-0.16 0.48-0.48v-0.912c0-0.32-0.16-0.48-0.48-0.48h-3.12v-2.928c0-0.32-0.16-0.48-0.48-0.48h-1.008c-0.304 0-0.472 0.16-0.504 0.48l-0.312 2.976-1.752 0.216c-0.208 0.032-0.348 0.088-0.42 0.168s-0.108 0.2-0.108 0.36v0.6c0 0.32 0.16 0.48 0.48 0.48h1.728v7.056c0 2.272 1.136 3.408 3.408 3.408zm15.768 0.048c0.96 0 1.824-0.104 2.592-0.312 0.256-0.08 0.428-0.188 0.516-0.324s0.132-0.356 0.132-0.66v-1.536c0-0.224-0.036-0.384-0.108-0.48s-0.188-0.144-0.348-0.144c-0.128 0-0.284 0.016-0.468 0.048s-0.404 0.048-0.66 0.048c-0.576 0-0.984-0.096-1.224-0.288s-0.36-0.528-0.36-1.008v-4.848h2.4c0.272 0 0.46-0.056 0.564-0.168s0.156-0.296 0.156-0.552v-1.632c0-0.272-0.052-0.46-0.156-0.564s-0.292-0.156-0.564-0.156h-2.4v-2.496c0-0.272-0.052-0.46-0.156-0.564s-0.292-0.156-0.564-0.156h-2.28c-0.256 0-0.448 0.052-0.576 0.156s-0.216 0.292-0.264 0.564l-0.552 2.592-1.2 0.288c-0.224 0.048-0.384 0.136-0.48 0.264s-0.144 0.312-0.144 0.552v1.152c0 0.256 0.056 0.44 0.168 0.552s0.296 0.168 0.552 0.168h0.984v5.136c0 1.504 0.36 2.608 1.08 3.312s1.84 1.056 3.36 1.056zm10.992 0.144c2 0 3.568-0.576 4.704-1.728s1.704-2.76 1.704-4.824c0-2.048-0.568-3.648-1.704-4.8s-2.704-1.728-4.704-1.728-3.568 0.576-4.704 1.728-1.704 2.752-1.704 4.8c0 2.064 0.568 3.672 1.704 4.824s2.704 1.728 4.704 1.728zm0-3.168c-1.232 0-1.848-1.128-1.848-3.384 0-2.24 0.616-3.36 1.848-3.36s1.848 1.12 1.848 3.36c0 2.256-0.616 3.384-1.848 3.384zm12.648 2.808c0.272 0 0.46-0.056 0.564-0.168s0.156-0.296 0.156-0.552v-8.256c0.656-0.352 1.288-0.528 1.896-0.528 0.736 0 1.104 0.4 1.104 1.2v7.584c0 0.256 0.056 0.44 0.168 0.552s0.296 0.168 0.552 0.168h3.072c0.272 0 0.46-0.056 0.564-0.168s0.156-0.296 0.156-0.552v-8.256c0.656-0.352 1.288-0.528 1.896-0.528 0.736 0 1.104 0.4 1.104 1.2v7.584c0 0.256 0.056 0.44 0.168 0.552s0.296 0.168 0.552 0.168h3.072c0.272 0 0.46-0.056 0.564-0.168s0.156-0.296 0.156-0.552v-8.496c0-1.104-0.316-1.964-0.948-2.58s-1.508-0.924-2.628-0.924c-0.8 0-1.544 0.116-2.232 0.348s-1.432 0.612-2.232 1.14c-0.304-0.48-0.712-0.848-1.224-1.104s-1.12-0.384-1.824-0.384c-0.784 0-1.52 0.12-2.208 0.36s-1.416 0.64-2.184 1.2l-0.192-0.576c-0.08-0.24-0.18-0.404-0.3-0.492s-0.292-0.132-0.516-0.132h-2.328c-0.256 0-0.44 0.052-0.552 0.156s-0.168 0.292-0.168 0.564v10.92c0 0.256 0.056 0.44 0.168 0.552s0.296 0.168 0.552 0.168h3.072zm24.552 0.36c2 0 3.568-0.576 4.704-1.728s1.704-2.76 1.704-4.824c0-2.048-0.568-3.648-1.704-4.8s-2.704-1.728-4.704-1.728-3.568 0.576-4.704 1.728-1.704 2.752-1.704 4.8c0 2.064 0.568 3.672 1.704 4.824s2.704 1.728 4.704 1.728zm0-3.168c-1.232 0-1.848-1.128-1.848-3.384 0-2.24 0.616-3.36 1.848-3.36s1.848 1.12 1.848 3.36c0 2.256-0.616 3.384-1.848 3.384zm12.648 2.808c0.272 0 0.46-0.056 0.564-0.168s0.156-0.296 0.156-0.552v-7.416c0.816-0.272 1.688-0.408 2.616-0.408 0.24 0 0.436 8e-3 0.588 0.024s0.284 0.024 0.396 0.024c0.272 0 0.46-0.056 0.564-0.168s0.156-0.296 0.156-0.552v-2.568c0-0.352-0.12-0.568-0.36-0.648-0.144-0.048-0.344-0.072-0.6-0.072-1.296 0-2.512 0.672-3.648 2.016l-0.36-1.248c-0.064-0.224-0.156-0.384-0.276-0.48s-0.3-0.144-0.54-0.144h-2.328c-0.256 0-0.44 0.052-0.552 0.156s-0.168 0.292-0.168 0.564v10.92c0 0.256 0.056 0.44 0.168 0.552s0.296 0.168 0.552 0.168h3.072zm10.392 0c0.272 0 0.46-0.056 0.564-0.168s0.156-0.296 0.156-0.552v-7.416c0.816-0.272 1.688-0.408 2.616-0.408 0.24 0 0.436 8e-3 0.588 0.024s0.284 0.024 0.396 0.024c0.272 0 0.46-0.056 0.564-0.168s0.156-0.296 0.156-0.552v-2.568c0-0.352-0.12-0.568-0.36-0.648-0.144-0.048-0.344-0.072-0.6-0.072-1.296 0-2.512 0.672-3.648 2.016l-0.36-1.248c-0.064-0.224-0.156-0.384-0.276-0.48s-0.3-0.144-0.54-0.144h-2.328c-0.256 0-0.44 0.052-0.552 0.156s-0.168 0.292-0.168 0.564v10.92c0 0.256 0.056 0.44 0.168 0.552s0.296 0.168 0.552 0.168h3.072zm12.384 0.36c2 0 3.568-0.576 4.704-1.728s1.704-2.76 1.704-4.824c0-2.048-0.568-3.648-1.704-4.8s-2.704-1.728-4.704-1.728-3.568 0.576-4.704 1.728-1.704 2.752-1.704 4.8c0 2.064 0.568 3.672 1.704 4.824s2.704 1.728 4.704 1.728zm0-3.168c-1.232 0-1.848-1.128-1.848-3.384 0-2.24 0.616-3.36 1.848-3.36s1.848 1.12 1.848 3.36c0 2.256-0.616 3.384-1.848 3.384zm14.592 2.808c0.272 0 0.468-0.048 0.588-0.144s0.212-0.272 0.276-0.528l1.608-7.08 1.632 7.08c0.064 0.256 0.16 0.432 0.288 0.528s0.32 0.144 0.576 0.144h2.928c0.256 0 0.444-0.04 0.564-0.12s0.212-0.232 0.276-0.456l3.384-10.584c0.112-0.336 0.168-0.576 0.168-0.72 0-0.32-0.2-0.48-0.6-0.48h-3.096c-0.288 0-0.496 0.056-0.624 0.168s-0.216 0.328-0.264 0.648l-1.248 7.2-1.776-7.344c-0.064-0.256-0.156-0.432-0.276-0.528s-0.316-0.144-0.588-0.144h-2.472c-0.256 0-0.448 0.048-0.576 0.144s-0.224 0.272-0.288 0.528l-1.704 7.344-1.368-7.2c-0.064-0.32-0.156-0.536-0.276-0.648s-0.324-0.168-0.612-0.168h-3.216c-0.4 0-0.6 0.16-0.6 0.48 0 0.144 0.056 0.384 0.168 0.72l3.408 10.584c0.064 0.224 0.156 0.376 0.276 0.456s0.308 0.12 0.564 0.12h2.88z" fill="#232F3E" fill-rule="nonzero"/>
</g>
</g>
</g>
</g>
</svg>
