<?xml version="1.0" encoding="UTF-8"?>
<svg width="894px" height="559px" viewBox="0 0 894 559" version="1.1" xmlns="http://www.w3.org/2000/svg" xmlns:xlink="http://www.w3.org/1999/xlink">
    <!-- Generator: Sketch 55.2 (78181) - https://sketchapp.com -->
    <title>Low fi / Detail Page</title>
    <desc>Created with Sketch.</desc>
    <defs>
        <polygon id="path-1" points="0.251389612 0.347332724 47.088312 0.347332724 47.088312 10.8808857 0.251389612 10.8808857"></polygon>
        <rect id="path-3" x="168" y="18" width="639" height="34" rx="17"></rect>
        <filter x="-5.6%" y="-105.9%" width="111.3%" height="311.8%" filterUnits="objectBoundingBox" id="filter-4">
            <feOffset dx="0" dy="0" in="SourceAlpha" result="shadowOffsetOuter1"></feOffset>
            <feGaussianBlur stdDeviation="12" in="shadowOffsetOuter1" result="shadowBlurOuter1"></feGaussianBlur>
            <feColorMatrix values="0 0 0 0 0   0 0 0 0 0   0 0 0 0 0  0 0 0 0.1 0" type="matrix" in="shadowBlurOuter1"></feColorMatrix>
        </filter>
    </defs>
    <g id="Low-fi-/-Detail-Page" stroke="none" stroke-width="1" fill="none" fill-rule="evenodd">
        <g id="Detail-Page">
            <g id="Page">
                <rect id="Mask" fill="#FFFFFF" x="0" y="0" width="894" height="559" rx="8"></rect>
                <g id="Group-4" transform="translate(702.000000, 121.000000)">
                    <rect id="Rectangle-1" stroke="#AAB7B8" opacity="0.297409784" x="0.5" y="0.5" width="144" height="188" rx="2"></rect>
                    <rect id="Rectangle-23" fill="#FF9900" x="16" y="46" width="113" height="33" rx="9"></rect>
                    <rect id="Rectangle-24" fill="#AAB7B8" opacity="0.297409784" x="16" y="16" width="104" height="9" rx="4.5"></rect>
                    <rect id="Rectangle-28" fill="#AAB7B8" opacity="0.297409784" x="16" y="143" width="104" height="9" rx="4.5"></rect>
                    <rect id="Rectangle-29" fill="#AAB7B8" opacity="0.297409784" x="16" y="164" width="104" height="9" rx="4.5"></rect>
                    <rect id="Rectangle-30" fill="#FF9900" x="16" y="89" width="113" height="33" rx="9"></rect>
                </g>
                <g id="Group-5" transform="translate(702.000000, 338.000000)" opacity="0.297409784">
                    <rect id="Rectangle-2" stroke="#AAB7B8" x="0.5" y="0.5" width="144" height="68" rx="2"></rect>
                    <rect id="Rectangle-25" fill="#6C7778" x="16" y="16" width="104" height="9" rx="4.5"></rect>
                    <rect id="Rectangle-26" fill="#AAB7B8" x="16" y="37" width="84" height="5" rx="2.5"></rect>
                    <rect id="Rectangle-27" fill="#AAB7B8" x="16" y="48" width="64" height="5" rx="2.5"></rect>
                </g>
                <g id="Group-6" transform="translate(463.000000, 305.000000)">
                    <rect id="Rectangle-3" fill="#AAB7B8" opacity="0.297409784" x="28" y="5" width="174" height="9" rx="4.5"></rect>
                    <rect id="Rectangle-4" fill="#AAB7B8" opacity="0.297409784" x="28" y="38" width="154" height="9" rx="4.5"></rect>
                    <circle id="Oval" stroke="#AAB7B8" cx="9.5" cy="9.5" r="9.5"></circle>
                    <circle id="Oval-Copy-14" stroke="#AAB7B8" cx="9.5" cy="42.5" r="9.5"></circle>
                </g>
                <g id="Group-2" transform="translate(51.000000, 468.000000)" fill="#AAB7B8" opacity="0.297409784">
                    <rect id="Rectangle-5" x="0" y="0" width="528" height="9" rx="4.5"></rect>
                    <rect id="Rectangle-6" x="0" y="21" width="535" height="9" rx="4.5"></rect>
                    <rect id="Rectangle-7" x="0" y="42" width="375" height="9" rx="4.5"></rect>
                </g>
                <g id="Group-7" transform="translate(51.000000, 121.000000)" opacity="0.297409784" stroke="#AAB7B8">
                    <rect id="Rectangle-8" x="0.5" y="0.5" width="55" height="55" rx="2"></rect>
                    <rect id="Rectangle-11" x="0.5" y="75.5" width="55" height="55" rx="2"></rect>
                    <rect id="Rectangle-43" x="0.5" y="149.5" width="55" height="55" rx="2"></rect>
                </g>
                <g id="Group-8" transform="translate(464.000000, 121.000000)">
                    <rect id="Rectangle-9" fill="#AAB7B8" opacity="0.502929688" x="0" y="0" width="154" height="16" rx="8"></rect>
                    <rect id="Rectangle-10" fill="#AAB7B8" opacity="0.502929688" x="0" y="24" width="116" height="16" rx="8"></rect>
                    <g id="prime" transform="translate(0.000000, 56.000000)">
                        <g id="Group" transform="translate(12.000000, 0.000000)" fill="#2292C0">
                            <path d="M4.293344,5.47019384 C3.71037746,5.47019384 3.16113625,5.6198409 2.64562038,5.91794734 L2.64562038,10.2767148 C3.13945568,10.576009 3.68749241,10.7244683 4.293344,10.7244683 C4.92087617,10.7244683 5.38339508,10.5154375 5.67969625,10.0950006 C5.97720191,9.67575126 6.12535249,9.0118409 6.12535249,8.10564482 C6.12535249,7.18875966 5.97961086,6.5200986 5.68812759,6.09966162 C5.39664432,5.68041232 4.93171645,5.47019384 4.293344,5.47019384 L4.293344,5.47019384 Z M0.19089763,4.30983529 C0.19089763,4.15543754 0.225827443,4.0473591 0.292073641,3.98678768 C0.359524316,3.92621625 0.465518232,3.89533669 0.612464344,3.89533669 L1.82175858,3.89533669 C2.07951651,3.89533669 2.23730291,4.01766723 2.29270882,4.25995294 L2.4107475,4.69107899 C2.7467964,4.37040672 3.15270492,4.11624426 3.62967754,3.9285916 C4.10544569,3.74093894 4.58964518,3.64711261 5.08348047,3.64711261 C6.16991812,3.64711261 7.03111869,4.03904538 7.66346876,4.8240986 C8.29702331,5.60796415 8.61380059,6.66974566 8.61380059,8.00588011 C8.61380059,8.92395294 8.45721866,9.72444594 8.14285034,10.4097345 C7.8296865,11.095023 7.40330188,11.6223507 6.86490096,11.9929053 C6.32770452,12.3634599 5.71101264,12.5487373 5.0160298,12.5487373 C4.55591984,12.5487373 4.11989941,12.4762891 3.70435508,12.3325804 C3.29001522,12.1888717 2.93710366,11.99053 2.64562038,11.7363675 L2.64562038,15.3659025 C2.64562038,15.5203003 2.614304,15.6283787 2.55408018,15.6889501 C2.49144741,15.7495216 2.38184007,15.7804011 2.22525815,15.7804011 L0.612464344,15.7804011 C0.465518232,15.7804011 0.359524316,15.7495216 0.292073641,15.6889501 C0.225827443,15.6283787 0.19089763,15.5203003 0.19089763,15.3659025 L0.19089763,4.30983529 Z" id="Fill-1"></path>
                            <path d="M12.5791775,5.15522241 C13.0272427,4.66946331 13.4500139,4.32384986 13.8486956,4.11956975 C14.2461728,3.91528964 14.668944,3.8119619 15.1182136,3.8119619 L15.3530865,3.8119619 C15.5096685,3.8119619 15.6216848,3.84284146 15.6891354,3.90341289 C15.7565861,3.96398431 15.7903114,4.07206275 15.7903114,4.2264605 L15.7903114,5.61960336 C15.7903114,5.76331204 15.7589951,5.86782745 15.6975668,5.93433725 C15.6361385,6.00084706 15.5265311,6.03410196 15.3699492,6.03410196 C15.2916582,6.03410196 15.1904822,6.02816359 15.0676256,6.01747451 C14.9435646,6.00678543 14.7869827,6.00084706 14.5966754,6.00084706 C14.3389175,6.00084706 14.0245491,6.03647731 13.6547749,6.10892549 C13.2850007,6.18018599 12.9718368,6.27163697 12.7140789,6.38209076 L12.7140789,11.9510992 C12.7140789,12.0948078 12.6827625,12.2005109 12.6213342,12.2658331 C12.5599059,12.3323429 12.4502986,12.3655978 12.2937167,12.3655978 L10.6797184,12.3655978 C10.5339767,12.3655978 10.4267784,12.3323429 10.3605322,12.2658331 C10.2930815,12.2005109 10.2593561,12.0948078 10.2593561,11.9510992 L10.2593561,4.30959776 C10.2593561,4.1552 10.2930815,4.04712157 10.3605322,3.98655014 C10.4267784,3.92597871 10.5339767,3.89509916 10.6797184,3.89509916 L11.8902171,3.89509916 C12.147975,3.89509916 12.3045569,4.01742969 12.3611673,4.25971541 L12.5791775,5.15522241 Z" id="Fill-3"></path>
                            <path d="M16.977082,4.30995406 C16.977082,4.1555563 17.0108073,4.04747787 17.078258,3.98690644 C17.1457086,3.92633501 17.2517026,3.89545546 17.3974442,3.89545546 L19.0114425,3.89545546 C19.1680244,3.89545546 19.2776317,3.92633501 19.33906,3.98690644 C19.4004883,4.04747787 19.4318047,4.1555563 19.4318047,4.30995406 L19.4318047,11.9514555 C19.4318047,12.0951641 19.4004883,12.1996796 19.33906,12.2661894 C19.2776317,12.3326992 19.1680244,12.3659541 19.0114425,12.3659541 L17.3974442,12.3659541 C17.2517026,12.3659541 17.1457086,12.3326992 17.078258,12.2661894 C17.0108073,12.1996796 16.977082,12.0951641 16.977082,11.9514555 L16.977082,4.30995406 Z M18.2044433,2.58544986 C17.7780587,2.58544986 17.4359874,2.47024538 17.179434,2.23746106 C16.9204716,2.00586443 16.7927971,1.69113053 16.7927971,1.29325938 C16.7927971,0.895388235 16.9204716,0.580654342 17.179434,0.347870028 C17.4359874,0.116273389 17.7780587,-0.000118767507 18.2044433,-0.000118767507 C18.6296235,-0.000118767507 18.9716948,0.116273389 19.2294527,0.347870028 C19.4872106,0.580654342 19.6160896,0.895388235 19.6160896,1.29325938 C19.6160896,1.69113053 19.4872106,2.00586443 19.2294527,2.23746106 C18.9716948,2.47024538 18.6296235,2.58544986 18.2044433,2.58544986 L18.2044433,2.58544986 Z" id="Fill-5"></path>
                            <path d="M23.7482865,4.70770644 C24.3420934,4.32052437 24.8768808,4.0473591 25.3538535,3.88702297 C25.8296216,3.72668683 26.3198435,3.64711261 26.8245191,3.64711261 C27.8338702,3.64711261 28.5445113,4.00103978 28.9600556,4.70770644 C29.5309774,4.33240112 30.0693783,4.0616112 30.5740539,3.89533669 C31.077525,3.72906218 31.5990632,3.64711261 32.1374641,3.64711261 C32.9215782,3.64711261 33.5298388,3.86208179 33.9610413,4.29320784 C34.3922438,4.72433389 34.6078451,5.32648515 34.6078451,6.09966162 L34.6078451,11.9513367 C34.6078451,12.0950454 34.5765287,12.2007485 34.5151004,12.2660706 C34.4536721,12.3325804 34.3440648,12.3658353 34.1874829,12.3658353 L32.5734846,12.3658353 C32.4277429,12.3658353 32.321749,12.3325804 32.2542984,12.2660706 C32.1868477,12.2007485 32.1531223,12.0950454 32.1531223,11.9513367 L32.1531223,6.63055238 C32.1531223,5.87875406 31.8122555,5.50344874 31.128113,5.50344874 C30.5234659,5.50344874 29.9115919,5.64715742 29.2961045,5.93457479 L29.2961045,6.09966162 L29.2961045,11.9513367 C29.2961045,12.0950454 29.2647881,12.2007485 29.2033598,12.2660706 C29.1419315,12.3325804 29.0323242,12.3658353 28.8757423,12.3658353 L27.261744,12.3658353 C27.1160023,12.3658353 27.0100084,12.3325804 26.9425578,12.2660706 C26.8751071,12.2007485 26.8413817,12.0950454 26.8413817,11.9513367 L26.8413817,6.63055238 C26.8413817,5.87875406 26.4993105,5.50344874 25.8163724,5.50344874 C25.1888402,5.50344874 24.5721483,5.6530958 23.9662967,5.95120224 L23.9662967,11.9513367 C23.9662967,12.0950454 23.9361848,12.2007485 23.8747565,12.2660706 C23.8121238,12.3325804 23.7037209,12.3658353 23.5459345,12.3658353 L21.9331407,12.3658353 C21.7873991,12.3658353 21.6802007,12.3325804 21.61275,12.2660706 C21.5465038,12.2007485 21.5127785,12.0950454 21.5127785,11.9513367 L21.5127785,4.30983529 C21.5127785,4.15543754 21.5465038,4.0473591 21.61275,3.98678768 C21.6802007,3.92621625 21.7873991,3.89533669 21.9331407,3.89533669 L23.1424349,3.89533669 C23.4013973,3.89533669 23.5579793,4.01766723 23.6133852,4.25995294 L23.7482865,4.70770644 Z" id="Fill-8"></path>
                            <path d="M40.1555426,5.32102185 C39.0799453,5.32102185 38.457231,5.97305546 38.2898088,7.27712269 C38.737874,7.36501064 39.2365272,7.4101423 39.7857684,7.4101423 C40.3566902,7.4101423 40.7722345,7.32462969 41.0299924,7.15241681 C41.2877504,6.9813916 41.4166293,6.71891541 41.4166293,6.36498824 C41.4166293,5.66901064 40.9962671,5.32102185 40.1555426,5.32102185 M39.9206697,8.90186218 C39.2810928,8.90186218 38.7270337,8.84129076 38.2560834,8.71896022 C38.3235341,9.46006947 38.5499757,9.98977255 38.9366126,10.3104448 C39.3232495,10.6311171 39.908625,10.7914532 40.6939435,10.7914532 C41.0071074,10.7914532 41.3130444,10.7724504 41.6093455,10.7332571 C41.9068512,10.6940639 42.3187821,10.6085513 42.8451382,10.4767193 C42.8788636,10.4648426 42.9125889,10.4565289 42.9463143,10.4517782 C42.9800396,10.4458398 43.0077426,10.4434644 43.0306276,10.4434644 C43.2209349,10.4434644 43.3160885,10.5705457 43.3160885,10.8247081 L43.3160885,11.5871955 C43.3160885,11.7641591 43.2907945,11.8876773 43.2402065,11.9601255 C43.1896185,12.031386 43.0920559,12.0955204 42.9463143,12.1501535 C42.1272704,12.4601367 41.2588429,12.6145345 40.3398275,12.6145345 C38.9510663,12.6145345 37.8826958,12.2392291 37.1383294,11.4874308 C36.3927586,10.7356325 36.0205754,9.6584112 36.0205754,8.25457927 C36.0205754,6.81868011 36.4011899,5.69157647 37.1636234,4.87326835 C37.9248525,4.0561479 38.9847916,3.6464 40.3398275,3.6464 C41.382904,3.6464 42.1983345,3.89581176 42.7861189,4.39225994 C43.3751078,4.8898958 43.6690001,5.55261849 43.6690001,6.38161569 C43.6690001,7.21061289 43.3522228,7.83770532 42.7186682,8.262893 C42.0863182,8.68926835 41.152849,8.90186218 39.9206697,8.90186218" id="Fill-10"></path>
                        </g>
                        <path d="M11.7502641,4.0040811 L9.74502077,4.0040811 C9.64267601,4.0040811 9.35349256,3.96266298 9.27613896,4.14371932 L4.78606006,11.3256212 L2.75939578,8.77189828 C2.70465323,8.68906204 2.61182891,8.6393603 2.51186426,8.6393603 L0.298361279,8.6393603 C0.184115964,8.6393603 0.0805811475,8.70326254 0.0305988221,8.8038494 C-0.0193835032,8.90443626 -0.00748294957,9.02514049 0.0615402616,9.11507698 L4.72298713,14.8840293 C4.77891973,14.9573985 4.86698383,15 4.95980815,15 C4.96456837,15 4.96813853,15 4.97289876,14.9988166 C5.0704833,14.9952665 5.15973745,14.943198 5.21090983,14.8603618 L11.8906906,4.56855089 C12.1608332,4.19933794 11.8585591,4.0040811 11.7502641,4.0040811" id="Fill-13" fill="#F7981C"></path>
                    </g>
                </g>
                <g id="Group-9" transform="translate(463.000000, 221.000000)">
                    <rect id="Rectangle-12" stroke="#AAB7B8" opacity="0.297409784" x="0.5" y="0.5" width="55" height="55" rx="2"></rect>
                    <g id="Group-17" transform="translate(14.000000, 5.000000)">
                        <polyline id="Path-7" stroke="#6C7778" points="12.6666667 35 4.66666667 21.8 14 9.33333333"></polyline>
                        <circle id="Oval" fill="#6C7778" cx="3.5" cy="22.1666667" r="3.5"></circle>
                        <g id="Group-12" transform="translate(14.601713, 12.364186) rotate(-44.000000) translate(-14.601713, -12.364186) translate(6.601713, 3.864186)" fill="#6C7778">
                            <rect id="Rectangle-13" x="6.08078353" y="0.893864193" width="3.66197183" height="3.12396694"></rect>
                            <ellipse id="Oval" cx="7.80899247" cy="14.6721754" rx="2.92957746" ry="1.73553719"></ellipse>
                            <path d="M13.03853,7.14179808 L13.03853,9.91865758 L2.78500888,9.91865758 L2.78500888,7.14179808 C2.78500888,4.45796805 5.08033777,2.28229394 7.91176944,2.28229394 C10.7432011,2.28229394 13.03853,4.45796805 13.03853,7.14179808 Z" id="Combined-Shape"></path>
                            <path d="M0.58782578,14.4310543 C0.58782578,10.5970114 3.86686705,7.48890552 7.91176944,7.48890552 C11.9566718,7.48890552 15.2357131,10.5970114 15.2357131,14.4310543 L0.58782578,14.4310543 Z" id="Combined-Shape"></path>
                        </g>
                        <path d="M4.66666667,42 C4.66666667,38.1340068 7.80067342,35 11.6666667,35 C15.5326599,35 18.6666667,38.1340068 18.6666667,42 L4.66666667,42 Z" id="Combined-Shape" fill="#6C7778"></path>
                    </g>
                    <rect id="Rectangle-31" stroke="#AAB7B8" opacity="0.297409784" x="75.5" y="0.5" width="55" height="55" rx="2"></rect>
                    <g id="Group-17" transform="translate(89.000000, 5.000000)">
                        <polyline id="Path-7" stroke="#00A4B4" points="12.6666667 35 4.66666667 21.8 14 9.33333333"></polyline>
                        <circle id="Oval" fill="#00A4B4" cx="3.5" cy="22.1666667" r="3.5"></circle>
                        <g id="Group-12" transform="translate(14.601713, 12.364186) rotate(-44.000000) translate(-14.601713, -12.364186) translate(6.601713, 3.864186)" fill="#00A4B4">
                            <rect id="Rectangle-32" x="6.08078353" y="0.893864193" width="3.66197183" height="3.12396694"></rect>
                            <ellipse id="Oval" cx="7.80899247" cy="14.6721754" rx="2.92957746" ry="1.73553719"></ellipse>
                            <path d="M13.03853,7.14179808 L13.03853,9.91865758 L2.78500888,9.91865758 L2.78500888,7.14179808 C2.78500888,4.45796805 5.08033777,2.28229394 7.91176944,2.28229394 C10.7432011,2.28229394 13.03853,4.45796805 13.03853,7.14179808 Z" id="Combined-Shape"></path>
                            <path d="M0.58782578,14.4310543 C0.58782578,10.5970114 3.86686705,7.48890552 7.91176944,7.48890552 C11.9566718,7.48890552 15.2357131,10.5970114 15.2357131,14.4310543 L0.58782578,14.4310543 Z" id="Combined-Shape"></path>
                        </g>
                        <path d="M4.66666667,42 C4.66666667,38.1340068 7.80067342,35 11.6666667,35 C15.5326599,35 18.6666667,38.1340068 18.6666667,42 L4.66666667,42 Z" id="Combined-Shape" fill="#00A4B4"></path>
                    </g>
                    <rect id="Rectangle-37" stroke="#AAB7B8" opacity="0.297409784" x="149.5" y="0.5" width="55" height="55" rx="2"></rect>
                    <g id="Group-17" transform="translate(163.000000, 5.000000)">
                        <polyline id="Path-7" stroke="#EAEDED" points="12.6666667 35 4.66666667 21.8 14 9.33333333"></polyline>
                        <circle id="Oval" fill="#EAEDED" cx="3.5" cy="22.1666667" r="3.5"></circle>
                        <g id="Group-12" transform="translate(14.601713, 12.364186) rotate(-44.000000) translate(-14.601713, -12.364186) translate(6.601713, 3.864186)" fill="#EAEDED">
                            <rect id="Rectangle-38" x="6.08078353" y="0.893864193" width="3.66197183" height="3.12396694"></rect>
                            <ellipse id="Oval" cx="7.80899247" cy="14.6721754" rx="2.92957746" ry="1.73553719"></ellipse>
                            <path d="M13.03853,7.14179808 L13.03853,9.91865758 L2.78500888,9.91865758 L2.78500888,7.14179808 C2.78500888,4.45796805 5.08033777,2.28229394 7.91176944,2.28229394 C10.7432011,2.28229394 13.03853,4.45796805 13.03853,7.14179808 Z" id="Combined-Shape"></path>
                            <path d="M0.58782578,14.4310543 C0.58782578,10.5970114 3.86686705,7.48890552 7.91176944,7.48890552 C11.9566718,7.48890552 15.2357131,10.5970114 15.2357131,14.4310543 L0.58782578,14.4310543 Z" id="Combined-Shape"></path>
                        </g>
                        <path d="M4.66666667,42 C4.66666667,38.1340068 7.80067342,35 11.6666667,35 C15.5326599,35 18.6666667,38.1340068 18.6666667,42 L4.66666667,42 Z" id="Combined-Shape" fill="#EAEDED"></path>
                    </g>
                </g>
                <g id="Group-17" transform="translate(189.000000, 133.000000)">
                    <polyline id="Path-7" stroke="#AAB7B8" stroke-width="4" points="74.3661972 219.112771 18.5915493 135.330953 83.6619718 56.2036805"></polyline>
                    <ellipse id="Oval" fill="#EAEDED" cx="18.5915493" cy="133.003681" rx="18.5915493" ry="18.6181818"></ellipse>
                    <ellipse id="Oval" fill="#0099D9" cx="18.5915493" cy="133.003681" rx="9.29577465" ry="9.30909091"></ellipse>
                    <g id="Group-12" transform="translate(93.106269, 70.432988) rotate(-44.000000) translate(-93.106269, -70.432988) translate(46.606269, 17.932988)">
                        <rect id="Rectangle-18" fill="#0099D9" x="34.8591549" y="0" width="23.2394366" height="20.9454545"></rect>
                        <ellipse id="Oval" fill="#EAEDED" cx="45.8266347" cy="92.3802958" rx="18.5915493" ry="11.6363636"></ellipse>
                        <path d="M79.0140845,41.8909091 L79.0140845,60.5090909 L13.943662,60.5090909 L13.943662,41.8909091 C13.943662,23.8964678 28.5101722,9.30909091 46.4788732,9.30909091 C64.4475743,9.30909091 79.0140845,23.8964678 79.0140845,41.8909091 Z" id="Combined-Shape" fill="#EAEDED"></path>
                        <path d="M6.44150323e-31,90.7636364 C4.22757891e-15,65.0572916 20.8093004,44.2181818 46.4788732,44.2181818 C72.1484461,44.2181818 92.9577465,65.0572916 92.9577465,90.7636364 L0,90.7636364 Z" id="Combined-Shape" fill="#AAB7B8"></path>
                    </g>
                    <path d="M25.5633803,254.021862 C25.5633803,228.315518 46.3726806,207.476408 72.0422535,207.476408 C97.7118264,207.476408 118.521127,228.315518 118.521127,254.021862 L25.5633803,254.021862 Z" id="Combined-Shape" fill="#EAEDED"></path>
                </g>
            </g>
            <g id="Number-1" transform="translate(435.000000, 112.000000)">
                <rect id="Rectangle" fill="#0099D9" x="0" y="0" width="24" height="24" rx="12"></rect>
                <polygon id="1" fill="#FFFFFF" fill-rule="nonzero" points="11.402 17 11.402 10.344 9.218 10.89 9.218 9.083 11.727 7.991 13.885 7.991 13.885 17"></polygon>
            </g>
            <g id="Number-2" transform="translate(164.000000, 158.000000)">
                <rect id="Rectangle" fill="#00A8E1" x="0" y="0" width="24" height="24" rx="12"></rect>
                <text id="2" font-family="AmazonEmber-Heavy, Amazon Ember" font-size="13" font-weight="600" line-spacing="18" fill="#FFFFFF">
                    <tspan x="8.113" y="16">2</tspan>
                </text>
            </g>
            <g id="Number-3" transform="translate(655.000000, 208.000000)">
                <rect id="Rectangle" fill="#0099D9" x="0" y="0" width="24" height="24" rx="12"></rect>
                <path d="M14.795,9.733 L12.806,11.657 C13.5686705,11.7610005 14.1623312,12.0339978 14.587,12.476 C15.0116688,12.9180022 15.224,13.4813299 15.224,14.166 C15.224,15.1106714 14.8903367,15.851664 14.223,16.389 C13.5556633,16.926336 12.6326726,17.195 11.454,17.195 C11.0466646,17.195 10.6285021,17.1473338 10.1995,17.052 C9.77049786,16.9566662 9.36533524,16.8180009 8.984,16.636 L8.984,14.803 C9.97200494,15.1496684 10.7606637,15.323 11.35,15.323 C12.3120048,15.323 12.793,14.9503371 12.793,14.205 C12.793,13.8929984 12.6803345,13.6633341 12.455,13.516 C12.2296655,13.3686659 11.8743358,13.295 11.389,13.295 C11.2503326,13.295 11.0531679,13.3058332 10.7975,13.3275 C10.5418321,13.3491668 10.3446674,13.3729999 10.206,13.399 L10.206,11.917 L12.195,9.837 L9.023,9.837 L9.023,7.991 L14.795,7.991 L14.795,9.733 Z" id="3" fill="#FFFFFF" fill-rule="nonzero"></path>
            </g>
            <g id="Number-4" transform="translate(435.000000, 319.000000)">
                <rect id="Rectangle" fill="#0099D9" x="0" y="0" width="24" height="24" rx="12"></rect>
                <path d="M12.533,17 L12.533,15.349 L8.373,15.349 L8.373,13.633 L12.377,7.991 L14.6,7.991 L14.6,13.594 L15.666,13.594 L15.666,15.349 L14.6,15.349 L14.6,17 L12.533,17 Z M12.533,13.594 L12.533,10.838 L10.57,13.594 L12.533,13.594 Z" id="4" fill="#FFFFFF" fill-rule="nonzero"></path>
            </g>
            <g id="Number-5" transform="translate(835.000000, 112.000000)">
                <rect id="Rectangle" fill="#0099D9" x="0" y="0" width="24" height="24" rx="12"></rect>
                <path d="M8.867,14.803 C9.93300533,15.1496684 10.79533,15.323 11.454,15.323 C11.9046689,15.323 12.2361656,15.2320009 12.4485,15.05 C12.6608344,14.8679991 12.767,14.5863352 12.767,14.205 C12.767,13.8323315 12.6543345,13.5571676 12.429,13.3795 C12.2036655,13.2018324 11.8613356,13.113 11.402,13.113 C11.072665,13.113 10.6891689,13.1281665 10.2515,13.1585 C9.81383114,13.1888335 9.45633472,13.2256664 9.179,13.269 L9.179,11.8 L9.426,7.991 L14.847,7.991 L14.847,9.837 L11.441,9.837 L11.324,11.514 C11.653335,11.4359996 11.9653319,11.397 12.26,11.397 C13.1526711,11.397 13.8698306,11.6483308 14.4115,12.151 C14.9531694,12.6536692 15.224,13.3209958 15.224,14.153 C15.224,14.7856698 15.0723349,15.3316644 14.769,15.791 C14.4656651,16.2503356 14.0431694,16.5991655 13.5015,16.8375 C12.9598306,17.0758345 12.3250036,17.195 11.597,17.195 C10.5916616,17.195 9.68167074,17.0043352 8.867,16.623 L8.867,14.803 Z" id="5" fill="#FFFFFF" fill-rule="nonzero"></path>
            </g>
            <g id="Number-6" transform="translate(689.000000, 326.000000)">
                <rect id="Rectangle" fill="#0099D9" x="0" y="0" width="24" height="24" rx="12"></rect>
                <path d="M12.949,9.59 C12.3163302,9.59 11.8461682,9.7633316 11.5385,10.11 C11.2308318,10.4566684 11.0510003,11.0113295 10.999,11.774 C11.5710029,11.4619984 12.1733302,11.306 12.806,11.306 C13.6380042,11.306 14.3009975,11.5508309 14.795,12.0405 C15.2890025,12.5301691 15.536,13.1823293 15.536,13.997 C15.536,14.9676715 15.2218365,15.7433304 14.5935,16.324 C13.9651635,16.9046696 13.1180053,17.195 12.052,17.195 C10.9339944,17.195 10.0825029,16.8266704 9.4975,16.09 C8.91249707,15.3533296 8.62,14.2786737 8.62,12.866 C8.62,11.2626586 8.97532978,10.0125045 9.686,9.1155 C10.3966702,8.21849551 11.3846603,7.77 12.65,7.77 C13.0486687,7.77 13.4516646,7.81549954 13.859,7.9065 C14.2663354,7.99750046 14.6216652,8.11666593 14.925,8.264 L14.925,9.941 C14.6476653,9.83699948 14.3291685,9.75250032 13.9695,9.6875 C13.6098315,9.62249968 13.2696683,9.59 12.949,9.59 Z M11.987,13.035 C11.6663317,13.035 11.341335,13.1043326 11.012,13.243 C11.0206667,14.0143372 11.1094992,14.5624984 11.2785,14.8875 C11.4475008,15.2125016 11.7399979,15.375 12.156,15.375 C12.5026684,15.375 12.7583325,15.2861676 12.923,15.1085 C13.0876675,14.9308324 13.17,14.6556685 13.17,14.283 C13.17,13.8843313 13.0681677,13.5766678 12.8645,13.36 C12.6608323,13.1433323 12.3683352,13.035 11.987,13.035 Z" id="6" fill="#FFFFFF" fill-rule="nonzero"></path>
            </g>
            <g id="Number-7" transform="translate(21.000000, 460.000000)">
                <rect id="Rectangle" fill="#0099D9" x="0" y="0" width="24" height="24" rx="12"></rect>
                <polygon id="7" fill="#FFFFFF" fill-rule="nonzero" points="9.53 17 12.78 9.889 8.594 9.889 8.594 7.991 15.315 7.991 15.315 9.759 12.182 17"></polygon>
            </g>
        </g>
        <g id="Menu">
            <path d="M8,0 L886,0 C890.418278,-8.11624501e-16 894,3.581722 894,8 L894,70 L0,70 L0,8 C-5.41083001e-16,3.581722 3.581722,8.11624501e-16 8,0 Z" id="Rectangle-44" fill="#232F3E"></path>
            <g id="nav-/-icon-/-app-/-cart-/-empty" transform="translate(827.000000, 27.000000)" fill="#FFFFFF">
                <path d="M8.15677447,9.75 L7.22852091,9.75 L7.22852091,11.2338942 L2.85383027,1.5 L0,1.5 L0,0 L2.8969739,0 L3.77484541,0 L8.15677447,9.75 L15.7082702,9.75 L18.4048419,3.75 L20,3.75 L16.6292853,11.25 L16.0355699,11.25 L7.95499221,11.25 Z M15.5933155,15 C14.943594,15 14.4292312,14.4682836 14.4292312,13.7966418 C14.4292312,13.125 14.943594,12.5932836 15.5933155,12.5932836 C16.243037,12.5932836 16.7573998,13.125 16.7573998,13.7966418 C16.7573998,14.4682836 16.243037,15 15.5933155,15 Z M8.09444676,15 C7.47179701,15 6.95743417,14.4682836 6.95743417,13.7966418 C6.95743417,13.125 7.47179701,12.5932836 8.09444676,12.5932836 C8.71709651,12.5932836 9.25853107,13.125 9.25853107,13.7966418 C9.25853107,14.4682836 8.74416824,15 8.09444676,15 Z M7.951373,3.75 L9.39707719,3.75 L9.39707719,5.25 L7.951373,5.25 L7.951373,3.75 Z M11.2042074,3.75 L12.6499116,3.75 L12.6499116,5.25 L11.2042074,5.25 L11.2042074,3.75 Z M9.75850323,6.75 L11.2042074,6.75 L11.2042074,8.25 L9.75850323,8.25 L9.75850323,6.75 Z M12.6499116,6.75 L14.0956158,6.75 L14.0956158,8.25 L12.6499116,8.25 L12.6499116,6.75 Z M14.4570418,3.75 L15.902746,3.75 L15.902746,5.25 L14.4570418,5.25 L14.4570418,3.75 Z" id="icon-/-cart-empty"></path>
            </g>
            <g id="amazon-logo_rgb_clr" transform="translate(51.000000, 24.000000)">
                <g id="Group-3" transform="translate(13.363725, 18.287203)">
                    <mask id="mask-2" fill="white">
                        <use xlink:href="#path-1"></use>
                    </mask>
                    <g id="Clip-2"></g>
                    <path d="M46.6742169,4.54577662 C41.0512537,8.69556496 32.899733,10.9019863 25.8799088,10.9019863 C16.042097,10.9019863 7.1826506,7.26529469 0.478632367,1.21223054 C-0.0474763921,0.736763269 0.421660697,0.0875675676 1.05467926,0.455773364 C8.28761967,4.66464344 17.2325236,7.19917942 26.4707261,7.19917942 C32.7027939,7.19917942 39.5531097,5.90606317 45.8569196,3.23226311 C46.8075024,2.82888961 47.6044025,3.8585998 46.6742169,4.54577662" id="Fill-1" fill="#EC912D" mask="url(#mask-2)"></path>
                </g>
                <path d="M62.377649,20.1616412 C61.6584696,19.2409508 57.6240313,19.7255617 55.8111364,19.9425464 C55.2621687,20.0086617 55.1770628,19.5286226 55.6718724,19.1811657 C58.8907717,16.9205861 64.1645197,17.5732986 64.7774927,18.3301075 C65.3946858,19.0935982 64.6150179,24.3810615 61.5990361,26.9043439 C61.1348225,27.2922436 60.6934679,27.0854575 60.8995506,26.5730641 C61.5782872,24.8779811 63.0975317,21.0830348 62.377649,20.1616412" id="Fill-4" fill="#EC912D"></path>
                <path d="M55.9387952,3.21116249 L55.9387952,1.01458808 C55.9409052,0.679791599 56.1923543,0.457531749 56.4958515,0.458235103 L66.3414002,0.457531749 C66.6561511,0.457531749 66.9090068,0.686473461 66.9090068,1.01142299 L66.9090068,2.89535656 C66.9058417,3.21186584 66.6396223,3.62367958 66.1676718,4.27850212 L61.0676522,11.5596223 C62.9607294,11.515311 64.9631781,11.799466 66.6832302,12.7658743 C67.0711299,12.983914 67.1752263,13.3064018 67.2054705,13.6232628 L67.2054705,15.9671898 C67.2054705,16.2896776 66.8520352,16.6638619 66.4803126,16.4690329 C63.4502638,14.881563 59.4288375,14.7085379 56.0780593,16.4887268 C55.7355259,16.6708955 55.3775187,16.302338 55.3775187,15.9791469 L55.3775187,13.7512732 C55.3775187,13.3943211 55.3842006,12.7848649 55.7439661,12.2415239 L61.652491,3.76470205 L56.5078085,3.76435037 C56.1934093,3.76435037 55.9409052,3.54033214 55.9387952,3.21116249" id="Fill-5" fill="#FFFFFF"></path>
                <path d="M75.4118528,3.31279713 C73.2029697,3.31279713 73.0636908,6.32033865 73.0636908,8.19688701 C73.0636908,10.0730837 73.0359232,14.0843113 75.3847737,14.0843113 C77.7054901,14.0843113 77.8169717,10.8492348 77.8169717,8.87667861 C77.8169717,7.582859 77.761055,6.02985347 77.3689352,4.80039075 C77.033787,3.73269945 76.3624357,3.31279713 75.4118528,3.31279713 Z M75.3847737,0.174431781 C79.8299707,0.174431781 82.2340345,3.99188538 82.2340345,8.84397265 C82.2340345,13.5339368 79.5788733,17.2550309 75.3847737,17.2550309 C71.0229241,17.2550309 68.6459394,13.436874 68.6459394,8.68220124 C68.6459394,3.89447086 71.0503549,0.174431781 75.3847737,0.174431781 L75.3847737,0.174431781 Z" id="Fill-6" fill="#FFFFFF"></path>
                <path d="M51.1113253,16.892452 C50.9133312,17.0704005 50.5514556,17.076379 50.4037512,16.962084 C49.3803712,16.1704591 48.6868642,14.9663172 48.6868642,14.9663172 C47.0424227,16.6410029 45.8780202,17.1435493 43.7486161,17.1435493 C41.2270922,17.1435493 39.265438,15.587027 39.265438,12.4753891 C39.265438,10.0438945 40.5821166,8.39030935 42.45972,7.58004559 C44.0844676,6.866493 46.3545425,6.73707587 48.0911234,6.54189515 C48.0911234,6.54189515 48.236366,4.66534679 47.7274894,3.98098339 C47.3332595,3.45065451 46.6622599,3.20272224 46.0464735,3.20272224 C44.9351742,3.19815044 43.8618561,3.80268317 43.6487398,4.96497558 C43.5878997,5.29731032 43.3424292,5.57654184 43.0839466,5.54875936 L40.2156692,5.23787691 C39.9958711,5.21255617 39.697649,4.9860762 39.768336,4.61154021 C40.4354673,1.08949528 43.6156822,0.0256724194 46.4663758,0.0256724194 C47.9233735,0.0256724194 49.8287594,0.41427548 50.977688,1.51713448 C52.4343341,2.87847607 52.2947183,4.69453598 52.2947183,6.67271898 L52.2947183,11.3380658 C52.2947183,12.742312 52.8774471,13.3577467 53.4246565,14.1138522 C53.6156171,14.3871052 53.659225,14.710648 53.4155129,14.9100488 C52.8032432,15.4231456 51.1113253,16.892452 51.1113253,16.892452 Z M48.0911234,9.58987952 C48.0911234,10.7574471 48.1196092,11.7291306 47.5312537,12.767281 C47.055083,13.6095474 46.2982742,14.1286226 45.4577662,14.1286226 C44.3091892,14.1286226 43.6364311,13.2529469 43.6364311,11.9559622 C43.6364311,9.4052491 45.9251449,8.94173885 48.0911234,8.94173885 L48.0911234,9.58987952 L48.0911234,9.58987952 Z" id="Fill-7" fill="#FFFFFF"></path>
                <path d="M11.8455357,16.892452 C11.6478932,17.0704005 11.2856659,17.076379 11.1383133,16.962084 C10.1145816,16.1704591 9.42142625,14.9663172 9.42142625,14.9663172 C7.77663302,16.6410029 6.61258222,17.1435493 4.48317812,17.1435493 C1.96130251,17.1435493 0,15.587027 0,12.4753891 C0,10.0438945 1.31667861,8.39030935 3.19428199,7.58004559 C4.81902963,6.866493 7.08910453,6.73707587 8.82568544,6.54189515 C8.82568544,6.54189515 8.97057636,4.66534679 8.46205145,3.98098339 C8.06746988,3.45065451 7.39682188,3.20272224 6.78068382,3.20272224 C5.66973624,3.19815044 4.59606643,3.80268317 4.38330186,4.96497558 C4.32211006,5.29731032 4.07699121,5.57654184 3.81850863,5.54875936 L0.949879518,5.23787691 C0.730081407,5.21255617 0.431859329,4.9860762 0.502546402,4.61154021 C1.16967763,1.08949528 4.34989254,0.0256724194 7.20093781,0.0256724194 C8.65793553,0.0256724194 10.5633214,0.41427548 11.7122501,1.51713448 C13.1685444,2.87847607 13.0289287,4.69453598 13.0289287,6.67271898 L13.0289287,11.3380658 C13.0289287,12.742312 13.6120091,13.3577467 14.1592185,14.1138522 C14.3501791,14.3871052 14.393787,14.710648 14.1497232,14.9100488 C13.5378053,15.4231456 11.8455357,16.892452 11.8455357,16.892452 Z M8.82568544,9.58987952 C8.82568544,10.7574471 8.8538196,11.7291306 8.26546402,12.767281 C7.78964507,13.6095474 7.03248453,14.1286226 6.19197655,14.1286226 C5.04339954,14.1286226 4.37064148,13.2529469 4.37064148,11.9559622 C4.37064148,9.4052491 6.65970694,8.94173885 8.82568544,8.94173885 L8.82568544,9.58987952 L8.82568544,9.58987952 Z" id="Fill-8" fill="#FFFFFF"></path>
                <path d="M20.6047542,8.22888961 C20.6047542,6.44975578 20.5207034,3.99188538 22.6740215,3.99188538 C24.7985021,3.99188538 24.5189189,6.51481602 24.5189189,8.22888961 L24.522084,16.3790036 C24.522084,16.6737089 24.7587626,16.9117942 25.0597981,16.9307848 L28.0515142,16.9307848 C28.3708369,16.9307848 28.6289678,16.6846109 28.6289678,16.3779486 L28.6289678,8.22888961 C28.6289678,7.355324 28.6011853,6.06220775 28.908551,5.28535331 C29.2162683,4.50885054 29.9713188,4.02353631 30.6985868,4.02353631 C31.5647672,4.02353631 32.2357669,4.31507652 32.4594334,5.35041355 C32.5994008,5.9651449 32.5434842,7.582859 32.5434842,8.22888961 L32.5445392,16.3790036 C32.5445392,16.6737089 32.7808662,16.9117942 33.0819017,16.9307848 L36.073266,16.9307848 C36.3929404,16.9307848 36.6510713,16.6846109 36.6510713,16.3779486 L36.6538847,6.67658743 C36.6538847,5.02651905 36.8490655,3.15067405 35.8984826,1.85650277 C35.059733,0.691748616 33.6899512,0.174431781 32.4316509,0.174431781 C30.6704526,0.174431781 29.0207359,1.08035168 28.2934679,3.02125692 C27.4547183,1.08035168 26.2804689,0.174431781 24.4070856,0.174431781 C22.5621882,0.174431781 21.1920547,1.08035168 20.4654901,3.02125692 L20.4088701,3.02125692 L20.4088701,1.05819603 C20.4088701,0.749071964 20.1584761,0.498677955 19.849352,0.498677955 L17.0545751,0.498677955 C16.745451,0.498677955 16.495057,0.749071964 16.495057,1.05819603 L16.495057,16.3712667 C16.495057,16.6803908 16.745451,16.9307848 17.0545751,16.9307848 L20.0452361,16.9307848 C20.3543601,16.9307848 20.6047542,16.6803908 20.6047542,16.3712667 L20.6047542,8.22888961" id="Fill-9" fill="#FFFFFF"></path>
                <path d="M88.5842657,16.3712667 C88.5842657,16.6803908 88.3338717,16.9307848 88.0247476,16.9307848 L85.0337349,16.9307848 C84.7249626,16.9307848 84.4742169,16.6803908 84.4742169,16.3712667 L84.4742169,1.05819603 C84.4742169,0.749071964 84.7249626,0.498677955 85.0337349,0.498677955 L87.7993227,0.498677955 C88.1232172,0.498677955 88.3588408,0.759270596 88.3588408,0.935812439 L88.3588408,3.2797395 L88.4165158,3.2797395 C89.2556171,1.17671117 90.4291631,0.174431781 92.4980788,0.174431781 C93.8404298,0.174431781 95.1546467,0.659394334 95.9933963,1.98627157 C96.7762292,3.21503093 96.7762292,5.28535331 96.7762292,6.77365028 L96.7762292,16.4472289 C96.7428199,16.7194269 96.4980528,16.9307848 96.2019407,16.9307848 L93.1996744,16.9307848 C92.9222012,16.9132009 92.6985347,16.7092283 92.6665321,16.4472289 L92.6714556,7.15838489 C92.6714556,4.05061543 91.4806773,3.95917942 90.7935005,3.95917942 C89.9941387,3.95917942 89.3512732,4.58340606 89.0699316,5.16578313 C88.6507327,6.10440899 88.583914,7.06448714 88.583914,8.10052752 L88.5842657,16.3712667" id="Fill-10" fill="#FFFFFF"></path>
            </g>
            <g id="Rectangle-50" opacity="0.0525018601">
                <use fill="black" fill-opacity="1" filter="url(#filter-4)" xlink:href="#path-3"></use>
                <use fill="#FFFFFF" fill-rule="evenodd" xlink:href="#path-3"></use>
            </g>
            <g id="Search" opacity="0.199497768" transform="translate(777.000000, 30.000000)" stroke="#FFFFFF" stroke-width="2">
                <path d="M7.41666667,8.2 L11.3552653,11.9810547" id="Line" stroke-linecap="round"></path>
                <circle id="Oval" cx="4.5" cy="4.5" r="4.5"></circle>
            </g>
        </g>
    </g>
</svg>