<?xml version="1.0" standalone="no"?>
<!DOCTYPE svg PUBLIC "-//W3C//DTD SVG 20010904//EN"
 "http://www.w3.org/TR/2001/REC-SVG-20010904/DTD/svg10.dtd">
<svg version="1.0" xmlns="http://www.w3.org/2000/svg"
 width="600.000000pt" height="600.000000pt" viewBox="0 0 600.000000 600.000000"
 preserveAspectRatio="xMidYMid meet">
<metadata>
Created by potrace 1.16, written by Peter Selinger 2001-2019
</metadata>
<g transform="translate(0.000000,600.000000) scale(0.100000,-0.100000)"
fill="#000000" stroke="none">
<path d="M0 3000 l0 -3000 3000 0 3000 0 0 3000 0 3000 -3000 0 -3000 0 0
-3000z m3902 1972 c72 -29 158 -106 189 -169 l24 -48 0 -1755 0 -1755 -24 -48
c-31 -63 -117 -140 -189 -169 l-57 -23 -845 0 -845 0 -57 23 c-72 29 -158 106
-189 169 l-24 48 0 1755 0 1755 23 47 c45 89 149 166 255 188 23 4 411 7 862
7 l820 -2 57 -23z"/>
<path d="M2712 4828 c-16 -16 -15 -43 2 -57 9 -8 95 -11 291 -9 252 3 279 5
289 21 8 12 8 22 0 35 -10 15 -37 17 -290 20 -209 2 -283 -1 -292 -10z"/>
<path d="M2214 4616 c-17 -8 -40 -26 -52 -41 l-22 -28 0 -1467 0 -1467 22 -28
c44 -56 23 -55 838 -55 815 0 794 -1 838 55 l22 28 0 1467 0 1467 -22 28 c-44
56 -23 55 -840 55 -608 -1 -759 -3 -784 -14z"/>
<path d="M2711 1346 c-7 -9 -11 -42 -9 -88 l3 -73 295 0 295 0 3 73 c2 46 -2
79 -9 88 -9 11 -63 14 -289 14 -226 0 -280 -3 -289 -14z"/>
</g>
</svg>
